<?xml version='1.0' encoding='UTF-8' standalone='no'?>
<svg xmlns:svg="http://www.w3.org/2000/svg" width="210mm" viewBox="0 0 2100 2970" xmlns="http://www.w3.org/2000/svg" height="297mm" xmlns:xlink="http://www.w3.org/1999/xlink" xmlns:freecad="http://www.freecadweb.org/wiki/index.php?title=Svg_Namespace" xmlns:cc="http://creativecommons.org/ns#" baseProfile="tiny" version="1.2" xmlns:rdf="http://www.w3.org/1999/02/22-rdf-syntax-ns#" xmlns:dc="http://purl.org/dc/elements/1.1/">
 <title>FreeCAD SVG Export</title>
 <desc>Drawing page: Page exported from FreeCAD document: Fenster_Wallstrasse</desc>
 <defs/>
 <g id="Page">
  <g id="A4_Portrait_ISO7200Pep.svg" transform="scale(10.000000, 10.000000)" style="stroke: none;">
   <g id="drawing-border" style="fill:none;stroke:#000000;stroke-width:0.35;stroke-linecap:miter;stroke-miterlimit:4">
    <rect width="188" height="283" x="15" y="7"/>
   </g>
   <g id="titleblock-structure" style="fill:none;stroke:#000000;stroke-width:0.35;stroke-linecap:miter;stroke-miterlimit:4">
    <rect width="140" height="34" x="63" y="256"/>
    <path d="m 63,264 h 140"/>
    <!-- upper horizontal Separator Titleblock -->
    <path d="m 63,282 h 87"/>
    <!-- lower horizontal Separator Document-Type -->
    <path d="m 63,286 h 140"/>
    <!-- lower horizontal Separator Copyright -->
    <path d="m 108,256 v 8"/>
    <!-- Separator Author / Owner -->
    <path d="m 150,256 v 30"/>
    <!-- Separator Title / Liste RH -->
    <path d="m 180,256 v 8"/>
    <!-- Separator Scale / Sheet -->
    <path d="m 150,272 h 53"/>
    <!-- Separator Part / Drawing-Nr -->
    <path d="m 150,278 h 53"/>
    <!-- Separator DRW-Info / Revision -->
    <path d="m 180,278 v 8"/>
    <!-- Separator Date / Revision -->
   </g>
   <g id="titleblock-text-non-editable" style="font-size:3px;text-anchor:start;fill:#000000;font-family:tahoma">
    <text x="64" y="259">Author:</text>
    <text x="64" y="263">Appr.:</text>
    <text x="109" y="259">Legal owner:</text>
    <text x="64" y="268">TITLE:</text>
    <text x="64" y="285">Document type:</text>
    <text x="181" y="259">Sheet:</text>
    <text x="181" y="263">Size:</text>
    <text x="151" y="259">Scale:</text>
    <text x="151" y="263">Toler.:</text>
    <text x="151" y="267">Part material:</text>
    <text x="151" y="271">Part number:</text>
    <text x="151" y="276">Drawing no.:</text>
    <text x="151" y="281">Date:</text>
    <text x="181" y="281">Revision:</text>
   </g>
   <g id="titleblock-text-editable" style="font-size:3px;text-anchor:start;fill:#000000;font-family:tahoma">
    <text x="75" y="259" freecad:editable="AUTHOR_NAME">
     <tspan xml:space="preserve">Malte Arzt</tspan>
    </text>
    <text x="75" y="263" freecad:editable="APPROVER_NAME">
     <tspan xml:space="preserve"/>
    </text>
    <text x="110" y="263" freecad:editable="OWNER_NAME">
     <tspan xml:space="preserve"/>
    </text>
    <text x="65" y="272" freecad:editable="TITLELINE-1">
     <tspan xml:space="preserve">Fenster Alt</tspan>
    </text>
    <text x="65" y="276" freecad:editable="TITLELINE-2">
     <tspan xml:space="preserve"/>
    </text>
    <text x="65" y="280" freecad:editable="TITLELINE-3">
     <tspan xml:space="preserve"/>
    </text>
    <text x="87" y="285" freecad:editable="DOCUMENT_TYPE">
     <tspan xml:space="preserve"/>
    </text>
    <text x="190" y="259" freecad:editable="SHEET">
     <tspan xml:space="preserve">1 of 1</tspan>
    </text>
    <text x="160" y="259" freecad:editable="SCALE">
     <tspan xml:space="preserve">mm 1:1</tspan>
    </text>
    <text x="160" y="263" freecad:editable="TOLERANCE">
     <tspan xml:space="preserve">+/- ?</tspan>
    </text>
    <text x="170" y="267" freecad:editable="PM">
     <tspan xml:space="preserve"/>
    </text>
    <text x="170" y="271" freecad:editable="PN">
     <tspan xml:space="preserve"/>
    </text>
    <text x="170" y="276" freecad:editable="DN">
     <tspan xml:space="preserve">DN</tspan>
    </text>
    <text x="152" y="285" freecad:editable="DATE">
     <tspan xml:space="preserve">23.07.2022</tspan>
    </text>
    <text x="182" y="285" freecad:editable="REVISION">
     <tspan xml:space="preserve">REV A</tspan>
    </text>
    <text x="190" y="263" freecad:editable="SIZE">
     <tspan xml:space="preserve">A4</tspan>
    </text>
    <text x="64" y="289" freecad:editable="RIGHTS">
     <tspan xml:space="preserve">(R) DO NOT DUPLICATE THIS DRAWING TO THIRD PARTIES WITHOUT OWNER'S PERMISSION !</tspan>
    </text>
   </g>
   <!-- Set display:none to hide FreeCAD Logo or remove this and next 4 lines from this code -->
   <g stroke="#000" id="freecad-logo" stroke-width="0.35" fill="none" fill-rule="evenodd" transform="translate(51,279)" style="display:inline">
    <path d="m0.1524 0.15254v8.8549h1.9744v-3.4652h1.396v-1.3661h-1.396v-1.4745h3.4391v-2.5441l-5.4135-0.005z"/>
    <path d="m7.7927 3.4504-0.50715-0.176-0.48387-1.2366-0.76115 0.04-0.34718 1.2787-0.4859 0.23269-1.2119-0.53015-0.51188 0.56882 0.65892 1.1485-0.18006 0.50567-1.2366 0.48387 0.044064 0.76263 1.2787 0.34718 0.23269 0.4859-0.53421 1.2104 0.56882 0.51188 1.1485-0.65891 0.50973 0.18155 0.4798 1.2351 0.7667-0.04258 0.34311-1.2802 0.4859-0.23269 1.2145 0.5357 0.51188-0.56882-0.65891-1.1485 0.17748-0.51122 1.2351-0.4798-0.03851-0.76521-1.2802-0.34311-0.23269-0.4859 0.53163-1.216-0.56881-0.51184zm-0.5715 1.2244 0.23576 0.13679 0.20426 0.18519 0.16353 0.22101 0.11763 0.24572 0.06916 0.26489 0.01146 0.27146-0.03921 0.27139-0.08948 0.25764-0.14234 0.23834-0.17964 0.20167-0.22101 0.16353-0.24572 0.11763-0.26489 0.06916-0.27295 0.01553-0.2719-0.04-0.2576-0.089-0.2383-0.143-0.2002-0.183-0.165-0.217-0.1177-0.246-0.0676-0.269-0.0156-0.273 0.039206-0.2714 0.089484-0.25764 0.14085-0.23427 0.18113-0.20574 0.22101-0.16352 0.24572-0.11763 0.26895-0.06768 0.27147-0.01146 0.27139 0.03921 0.25764 0.08948z"/>
   </g>
  </g>
  <g stroke="black" id="DrawingContent" stroke-width="1" fill="none" stroke-linecap="square" stroke-linejoin="bevel" fill-rule="evenodd">
   <g stroke="none" fill="#ffffff" fill-opacity="1" font-weight="400" font-family="Sans Serif" transform="matrix(1,0,0,1,585.04,737.37)" font-style="normal" font-size="31.75">
    <path d="M-270,65 L-110,65 L-110,435 L10,435 L10,505 L140,485 L140,455 L270,435 L270,65 C243.11,46.2778 225.046,17.3745 220,-15 L110,-15 L110,-505 L-270,-505 L-270,65" vector-effect="non-scaling-stroke" fill-rule="evenodd"/>
   </g>
   <g stroke="#000000" stroke-width="1" fill="none" stroke-linecap="square" stroke-linejoin="bevel" font-weight="400" font-family="Sans Serif" transform="matrix(1,0,0,1,585.04,737.37)" font-style="normal" font-size="31.75" stroke-opacity="1">
    <rect width="0" height="0" x="0" y="0"/>
   </g>
   <g stroke="none" fill="#ffffff" fill-opacity="1" font-weight="400" font-family="Sans Serif" transform="matrix(1,0,0,1,585.04,737.37)" font-style="normal" font-size="31.75">
    <path d="M-270,65 L-270,-505 L110,-505 L110,-15 L110,55 C71.512,53.6064 33.8664,43.3394 4.13558e-12,25 L3.87246e-12,25 C-33.8664,6.66059 -71.512,-3.6064 -110,-5 L-110,65 L-270,65" vector-effect="non-scaling-stroke" fill-rule="evenodd"/>
   </g>
   <g stroke="#000000" stroke-width="1" fill="none" stroke-linecap="square" stroke-linejoin="bevel" font-weight="400" font-family="Sans Serif" transform="matrix(1,0,0,1,585.04,737.37)" font-style="normal" font-size="31.75" stroke-opacity="1">
    <rect width="0" height="0" x="0" y="0"/>
   </g>
   <g stroke="none" fill="#ffffff" fill-opacity="1" font-weight="400" font-family="Sans Serif" transform="matrix(1,0,0,1,585.04,737.37)" font-style="normal" font-size="31.75">
    <path d="M3.87246e-12,25 C-33.8664,6.66059 -71.512,-3.6064 -110,-5 L-110,65 L-110,435 L10,435 L10,505 L140,485 L140,455 L270,435 L270,65 C243.11,46.2778 225.046,17.3745 220,-15 L110,-15 L110,55 C71.512,53.6064 33.8664,43.3394 4.13558e-12,25 " vector-effect="non-scaling-stroke" fill-rule="evenodd"/>
   </g>
   <g stroke="#000000" stroke-width="1" fill="none" stroke-linecap="square" stroke-linejoin="bevel" font-weight="400" font-family="Sans Serif" transform="matrix(1,0,0,1,585.04,737.37)" font-style="normal" font-size="31.75" stroke-opacity="1">
    <rect width="0" height="0" x="0" y="0"/>
   </g>
   <g stroke="#000000" stroke-width="1" fill="none" stroke-linecap="round" stroke-linejoin="bevel" font-weight="400" font-family="Sans Serif" transform="matrix(1,0,0,1,585.04,737.37)" font-style="normal" font-size="31.75" stroke-opacity="1">
    <path d="M-270,65 L-270,-505" vector-effect="non-scaling-stroke" fill-rule="evenodd"/>
   </g>
   <g stroke="#000000" stroke-width="1" fill="none" stroke-linecap="round" stroke-linejoin="bevel" font-weight="400" font-family="Sans Serif" transform="matrix(1,0,0,1,585.04,737.37)" font-style="normal" font-size="31.75" stroke-opacity="1">
    <path d="M-270,-505 L110,-505" vector-effect="non-scaling-stroke" fill-rule="evenodd"/>
   </g>
   <g stroke="#000000" stroke-width="1" fill="none" stroke-linecap="round" stroke-linejoin="bevel" font-weight="400" font-family="Sans Serif" transform="matrix(1,0,0,1,585.04,737.37)" font-style="normal" font-size="31.75" stroke-opacity="1">
    <path d="M110,-505 L110,55" vector-effect="non-scaling-stroke" fill-rule="evenodd"/>
   </g>
   <g stroke="#000000" stroke-width="1" fill="none" stroke-linecap="round" stroke-linejoin="bevel" font-weight="400" font-family="Sans Serif" transform="matrix(1,0,0,1,585.04,737.37)" font-style="normal" font-size="31.75" stroke-opacity="1">
    <path d="M1.06581e-13,25 C33.8664,43.3394 71.512,53.6064 110,55 " vector-effect="non-scaling-stroke" fill-rule="evenodd"/>
   </g>
   <g stroke="#000000" stroke-width="1" fill="none" stroke-linecap="round" stroke-linejoin="bevel" font-weight="400" font-family="Sans Serif" transform="matrix(1,0,0,1,585.04,737.37)" font-style="normal" font-size="31.75" stroke-opacity="1">
    <path d="M1.59872e-13,25 C-33.8664,6.66059 -71.512,-3.6064 -110,-5 " vector-effect="non-scaling-stroke" fill-rule="evenodd"/>
   </g>
   <g stroke="#000000" stroke-width="1" fill="none" stroke-linecap="round" stroke-linejoin="bevel" font-weight="400" font-family="Sans Serif" transform="matrix(1,0,0,1,585.04,737.37)" font-style="normal" font-size="31.75" stroke-opacity="1">
    <path d="M-110,65 L-110,-5" vector-effect="non-scaling-stroke" fill-rule="evenodd"/>
   </g>
   <g stroke="#000000" stroke-width="1" fill="none" stroke-linecap="round" stroke-linejoin="bevel" font-weight="400" font-family="Sans Serif" transform="matrix(1,0,0,1,585.04,737.37)" font-style="normal" font-size="31.75" stroke-opacity="1">
    <path d="M-270,65 L-110,65" vector-effect="non-scaling-stroke" fill-rule="evenodd"/>
   </g>
   <g stroke="#000000" stroke-width="1" fill="none" stroke-linecap="round" stroke-linejoin="bevel" font-weight="400" font-family="Sans Serif" transform="matrix(1,0,0,1,585.04,737.37)" font-style="normal" font-size="31.75" stroke-opacity="1">
    <path d="M-110,435 L10,435" vector-effect="non-scaling-stroke" fill-rule="evenodd"/>
   </g>
   <g stroke="#000000" stroke-width="1" fill="none" stroke-linecap="round" stroke-linejoin="bevel" font-weight="400" font-family="Sans Serif" transform="matrix(1,0,0,1,585.04,737.37)" font-style="normal" font-size="31.75" stroke-opacity="1">
    <path d="M10,435 L10,505" vector-effect="non-scaling-stroke" fill-rule="evenodd"/>
   </g>
   <g stroke="#000000" stroke-width="1" fill="none" stroke-linecap="round" stroke-linejoin="bevel" font-weight="400" font-family="Sans Serif" transform="matrix(1,0,0,1,585.04,737.37)" font-style="normal" font-size="31.75" stroke-opacity="1">
    <path d="M10,505 L140,485" vector-effect="non-scaling-stroke" fill-rule="evenodd"/>
   </g>
   <g stroke="#000000" stroke-width="1" fill="none" stroke-linecap="round" stroke-linejoin="bevel" font-weight="400" font-family="Sans Serif" transform="matrix(1,0,0,1,585.04,737.37)" font-style="normal" font-size="31.75" stroke-opacity="1">
    <path d="M140,485 L140,455" vector-effect="non-scaling-stroke" fill-rule="evenodd"/>
   </g>
   <g stroke="#000000" stroke-width="1" fill="none" stroke-linecap="round" stroke-linejoin="bevel" font-weight="400" font-family="Sans Serif" transform="matrix(1,0,0,1,585.04,737.37)" font-style="normal" font-size="31.75" stroke-opacity="1">
    <path d="M140,455 L270,435" vector-effect="non-scaling-stroke" fill-rule="evenodd"/>
   </g>
   <g stroke="#000000" stroke-width="1" fill="none" stroke-linecap="round" stroke-linejoin="bevel" font-weight="400" font-family="Sans Serif" transform="matrix(1,0,0,1,585.04,737.37)" font-style="normal" font-size="31.75" stroke-opacity="1">
    <path d="M270,435 L270,65" vector-effect="non-scaling-stroke" fill-rule="evenodd"/>
   </g>
   <g stroke="#000000" stroke-width="1" fill="none" stroke-linecap="round" stroke-linejoin="bevel" font-weight="400" font-family="Sans Serif" transform="matrix(1,0,0,1,585.04,737.37)" font-style="normal" font-size="31.75" stroke-opacity="1">
    <path d="M220,-15 C225.046,17.3745 243.11,46.2778 270,65 " vector-effect="non-scaling-stroke" fill-rule="evenodd"/>
   </g>
   <g stroke="#000000" stroke-width="1" fill="none" stroke-linecap="round" stroke-linejoin="bevel" font-weight="400" font-family="Sans Serif" transform="matrix(1,0,0,1,585.04,737.37)" font-style="normal" font-size="31.75" stroke-opacity="1">
    <path d="M220,-15 L110,-15" vector-effect="non-scaling-stroke" fill-rule="evenodd"/>
   </g>
   <g stroke="#000000" stroke-width="1" fill="none" stroke-linecap="round" stroke-linejoin="bevel" font-weight="400" font-family="Sans Serif" transform="matrix(1,0,0,1,585.04,737.37)" font-style="normal" font-size="31.75" stroke-opacity="1">
    <path d="M110,-15 L110,55" vector-effect="non-scaling-stroke" fill-rule="evenodd"/>
   </g>
   <g stroke="#000000" stroke-width="1" fill="none" stroke-linecap="round" stroke-linejoin="bevel" font-weight="400" font-family="Sans Serif" transform="matrix(1,0,0,1,585.04,737.37)" font-style="normal" font-size="31.75" stroke-opacity="1">
    <path d="M4.12115e-12,25 C33.8664,43.3394 71.512,53.6064 110,55 " vector-effect="non-scaling-stroke" fill-rule="evenodd"/>
   </g>
   <g stroke="#000000" stroke-width="1" fill="none" stroke-linecap="round" stroke-linejoin="bevel" font-weight="400" font-family="Sans Serif" transform="matrix(1,0,0,1,585.04,737.37)" font-style="normal" font-size="31.75" stroke-opacity="1">
    <path d="M3.87246e-12,25 C-33.8664,6.66059 -71.512,-3.6064 -110,-5 " vector-effect="non-scaling-stroke" fill-rule="evenodd"/>
   </g>
   <g stroke="#000000" stroke-width="1" fill="none" stroke-linecap="round" stroke-linejoin="bevel" font-weight="400" font-family="Sans Serif" transform="matrix(1,0,0,1,585.04,737.37)" font-style="normal" font-size="31.75" stroke-opacity="1">
    <path d="M-110,-5 L-110,435" vector-effect="non-scaling-stroke" fill-rule="evenodd"/>
   </g>
   <g stroke="#000000" stroke-width="1" fill="none" stroke-linecap="square" stroke-linejoin="bevel" font-weight="400" font-family="Sans Serif" transform="matrix(1,0,0,1,585.04,737.37)" font-style="normal" font-size="31.75" stroke-opacity="1">
    <rect width="0" height="0" x="0" y="0"/>
   </g>
   <g stroke="#000000" stroke-width="1" fill="none" stroke-linecap="square" stroke-linejoin="bevel" font-weight="400" font-family="Sans Serif" transform="matrix(1,0,0,1,435.314,111.815)" font-style="normal" font-size="31.75" stroke-opacity="1">
    <text stroke="none" xml:space="preserve" fill="#000000" fill-opacity="1" font-weight="400" x="4" font-family="osifont" font-style="normal" y="70" font-size="50">38.00</text>
   </g>
   <g stroke="#000000" stroke-width="3.5" fill="none" stroke-linecap="round" stroke-linejoin="bevel" font-weight="400" font-family="Sans Serif" transform="matrix(1,0,0,1,585.04,737.37)" font-style="normal" font-size="31.75" stroke-opacity="1">
    <path d="M-270,-540.305 L110,-540.305 M110,-505 L110,-568.305 M-270,-505 L-270,-568.305" vector-effect="none" fill-rule="evenodd"/>
   </g>
   <g stroke="#000000" stroke-width="3.5" fill="#000000" stroke-linecap="round" stroke-linejoin="bevel" fill-opacity="1" font-weight="400" font-family="Sans Serif" transform="matrix(1,0,0,1,695.04,197.065)" font-style="normal" font-size="31.75" stroke-opacity="1">
    <path d="M0,0 L-50,-8.33333 L-50,8.33333 L0,0" vector-effect="none" fill-rule="evenodd"/>
   </g>
   <g stroke="#000000" stroke-width="3.5" fill="#000000" stroke-linecap="round" stroke-linejoin="bevel" fill-opacity="1" font-weight="400" font-family="Sans Serif" transform="matrix(1,0,0,1,315.04,197.065)" font-style="normal" font-size="31.75" stroke-opacity="1">
    <path d="M0,0 L50,8.33333 L50,-8.33333 L0,0" vector-effect="none" fill-rule="evenodd"/>
   </g>
   <g stroke="#000000" stroke-width="1" fill="none" stroke-linecap="square" stroke-linejoin="bevel" font-weight="400" font-family="Sans Serif" transform="matrix(1,0,0,1,585.04,737.37)" font-style="normal" font-size="31.75" stroke-opacity="1">
    <rect width="0" height="0" x="0" y="0"/>
   </g>
   <g stroke="#000000" stroke-width="1" fill="none" stroke-linecap="square" stroke-linejoin="bevel" font-weight="400" font-family="Sans Serif" transform="matrix(0,-1,1,0,188.523,534.817)" font-style="normal" font-size="31.75" stroke-opacity="1">
    <text stroke="none" xml:space="preserve" fill="#000000" fill-opacity="1" font-weight="400" x="4" font-family="osifont" font-style="normal" y="70" font-size="50">57.00</text>
   </g>
   <g stroke="#000000" stroke-width="3.5" fill="none" stroke-linecap="round" stroke-linejoin="bevel" font-weight="400" font-family="Sans Serif" transform="matrix(1,0,0,1,585.04,737.37)" font-style="normal" font-size="31.75" stroke-opacity="1">
    <path d="M-311.267,65 L-311.267,-505 M-270,-505 L-339.267,-505 M-270,65 L-339.267,65" vector-effect="none" fill-rule="evenodd"/>
   </g>
   <g stroke="#000000" stroke-width="3.5" fill="#000000" stroke-linecap="round" stroke-linejoin="bevel" fill-opacity="1" font-weight="400" font-family="Sans Serif" transform="matrix(1,0,0,1,273.773,232.37)" font-style="normal" font-size="31.75" stroke-opacity="1">
    <path d="M0,0 L-8.33333,50 L8.33333,50 L0,0" vector-effect="none" fill-rule="evenodd"/>
   </g>
   <g stroke="#000000" stroke-width="3.5" fill="#000000" stroke-linecap="round" stroke-linejoin="bevel" fill-opacity="1" font-weight="400" font-family="Sans Serif" transform="matrix(1,0,0,1,273.773,802.37)" font-style="normal" font-size="31.75" stroke-opacity="1">
    <path d="M0,0 L8.33333,-50 L-8.33333,-50 L0,0" vector-effect="none" fill-rule="evenodd"/>
   </g>
   <g stroke="#000000" stroke-width="1" fill="none" stroke-linecap="square" stroke-linejoin="bevel" font-weight="400" font-family="Sans Serif" transform="matrix(1,0,0,1,585.04,737.37)" font-style="normal" font-size="31.75" stroke-opacity="1">
    <rect width="0" height="0" x="0" y="0"/>
   </g>
   <g stroke="#000000" stroke-width="1" fill="none" stroke-linecap="square" stroke-linejoin="bevel" font-weight="400" font-family="Sans Serif" transform="matrix(0.308602,-0.951191,0.951191,0.308602,398.722,913.309)" font-style="normal" font-size="31.75" stroke-opacity="1">
    <text stroke="none" xml:space="preserve" fill="#000000" fill-opacity="1" font-weight="400" x="4" font-family="osifont" font-style="normal" y="70" font-size="50">R25.00</text>
   </g>
   <g stroke="#000000" stroke-width="3.5" fill="none" stroke-linecap="round" stroke-linejoin="bevel" font-weight="400" font-family="Sans Serif" transform="matrix(1,0,0,1,585.04,737.37)" font-style="normal" font-size="31.75" stroke-opacity="1">
    <path d="M-119.046,244.836 L-41.8958,7.03847" vector-effect="none" fill-rule="evenodd"/>
   </g>
   <g stroke="#000000" stroke-width="3.5" fill="#000000" stroke-linecap="round" stroke-linejoin="bevel" fill-opacity="1" font-weight="400" font-family="Sans Serif" transform="matrix(1,0,0,1,543.144,744.408)" font-style="normal" font-size="31.75" stroke-opacity="1">
    <path d="M0,0 L-23.3567,44.9879 L-7.50351,50.1312 L0,0" vector-effect="none" fill-rule="evenodd"/>
   </g>
   <g stroke="#000000" stroke-width="1" fill="none" stroke-linecap="square" stroke-linejoin="bevel" font-weight="400" font-family="Sans Serif" transform="matrix(1,0,0,1,585.04,737.37)" font-style="normal" font-size="31.75" stroke-opacity="1">
    <rect width="0" height="0" x="0" y="0"/>
   </g>
   <g stroke="#000000" stroke-width="1" fill="none" stroke-linecap="square" stroke-linejoin="bevel" font-weight="400" font-family="Sans Serif" transform="matrix(0.357936,-0.933746,0.933746,0.357936,558.194,684.951)" font-style="normal" font-size="31.75" stroke-opacity="1">
    <text stroke="none" xml:space="preserve" fill="#000000" fill-opacity="1" font-weight="400" x="4" font-family="osifont" font-style="normal" y="70" font-size="50">R25.00</text>
   </g>
   <g stroke="#000000" stroke-width="3.5" fill="none" stroke-linecap="round" stroke-linejoin="bevel" font-weight="400" font-family="Sans Serif" transform="matrix(1,0,0,1,585.04,737.37)" font-style="normal" font-size="31.75" stroke-opacity="1">
    <path d="M119.046,-194.836 L29.5624,38.6003" vector-effect="none" fill-rule="evenodd"/>
   </g>
   <g stroke="#000000" stroke-width="3.5" fill="#000000" stroke-linecap="round" stroke-linejoin="bevel" fill-opacity="1" font-weight="400" font-family="Sans Serif" transform="matrix(1,0,0,1,614.602,775.97)" font-style="normal" font-size="31.75" stroke-opacity="1">
    <path d="M0,0 L25.678,-43.7045 L10.1156,-49.6701 L0,0" vector-effect="none" fill-rule="evenodd"/>
   </g>
   <g stroke="#000000" stroke-width="1" fill="none" stroke-linecap="square" stroke-linejoin="bevel" font-weight="400" font-family="Sans Serif" transform="matrix(1,0,0,1,585.04,737.37)" font-style="normal" font-size="31.75" stroke-opacity="1">
    <rect width="0" height="0" x="0" y="0"/>
   </g>
   <g stroke="#000000" stroke-width="1" fill="none" stroke-linecap="square" stroke-linejoin="bevel" font-weight="400" font-family="Sans Serif" transform="matrix(0,-1,1,0,671.233,540.098)" font-style="normal" font-size="31.75" stroke-opacity="1">
    <text stroke="none" xml:space="preserve" fill="#000000" fill-opacity="1" font-weight="400" x="4" font-family="osifont" font-style="normal" y="70" font-size="50">56.00</text>
   </g>
   <g stroke="#000000" stroke-width="3.5" fill="none" stroke-linecap="round" stroke-linejoin="bevel" font-weight="400" font-family="Sans Serif" transform="matrix(1,0,0,1,585.04,737.37)" font-style="normal" font-size="31.75" stroke-opacity="1">
    <path d="M171.443,-505 L171.443,55 M110,55 L199.443,55 M110,-505 L199.443,-505" vector-effect="none" fill-rule="evenodd"/>
   </g>
   <g stroke="#000000" stroke-width="3.5" fill="#000000" stroke-linecap="round" stroke-linejoin="bevel" fill-opacity="1" font-weight="400" font-family="Sans Serif" transform="matrix(1,0,0,1,756.483,792.37)" font-style="normal" font-size="31.75" stroke-opacity="1">
    <path d="M0,0 L8.33333,-50 L-8.33333,-50 L0,0" vector-effect="none" fill-rule="evenodd"/>
   </g>
   <g stroke="#000000" stroke-width="3.5" fill="#000000" stroke-linecap="round" stroke-linejoin="bevel" fill-opacity="1" font-weight="400" font-family="Sans Serif" transform="matrix(1,0,0,1,756.483,232.37)" font-style="normal" font-size="31.75" stroke-opacity="1">
    <path d="M0,0 L-8.33333,50 L8.33333,50 L0,0" vector-effect="none" fill-rule="evenodd"/>
   </g>
   <g stroke="#000000" stroke-width="1" fill="none" stroke-linecap="square" stroke-linejoin="bevel" font-weight="400" font-family="Sans Serif" transform="matrix(1,0,0,1,585.04,737.37)" font-style="normal" font-size="31.75" stroke-opacity="1">
    <rect width="0" height="0" x="0" y="0"/>
   </g>
   <g stroke="#000000" stroke-width="1" fill="none" stroke-linecap="square" stroke-linejoin="bevel" font-weight="400" font-family="Sans Serif" transform="matrix(0,-1,1,0,349.911,1020.59)" font-style="normal" font-size="31.75" stroke-opacity="1">
    <text stroke="none" xml:space="preserve" fill="#000000" fill-opacity="1" font-weight="400" x="4" font-family="osifont" font-style="normal" y="70" font-size="50">44.00</text>
   </g>
   <g stroke="#000000" stroke-width="3.5" fill="none" stroke-linecap="round" stroke-linejoin="bevel" font-weight="400" font-family="Sans Serif" transform="matrix(1,0,0,1,585.04,737.37)" font-style="normal" font-size="31.75" stroke-opacity="1">
    <path d="M-149.879,-5 L-149.879,435 M-110,435 L-177.879,435 M-110,-5 L-177.879,-5" vector-effect="none" fill-rule="evenodd"/>
   </g>
   <g stroke="#000000" stroke-width="3.5" fill="#000000" stroke-linecap="round" stroke-linejoin="bevel" fill-opacity="1" font-weight="400" font-family="Sans Serif" transform="matrix(1,0,0,1,435.161,1172.37)" font-style="normal" font-size="31.75" stroke-opacity="1">
    <path d="M0,0 L8.33333,-50 L-8.33333,-50 L0,0" vector-effect="none" fill-rule="evenodd"/>
   </g>
   <g stroke="#000000" stroke-width="3.5" fill="#000000" stroke-linecap="round" stroke-linejoin="bevel" fill-opacity="1" font-weight="400" font-family="Sans Serif" transform="matrix(1,0,0,1,435.161,732.37)" font-style="normal" font-size="31.75" stroke-opacity="1">
    <path d="M0,0 L-8.33333,50 L8.33333,50 L0,0" vector-effect="none" fill-rule="evenodd"/>
   </g>
   <g stroke="#000000" stroke-width="1" fill="none" stroke-linecap="square" stroke-linejoin="bevel" font-weight="400" font-family="Sans Serif" transform="matrix(1,0,0,1,585.04,737.37)" font-style="normal" font-size="31.75" stroke-opacity="1">
    <rect width="0" height="0" x="0" y="0"/>
   </g>
   <g stroke="#000000" stroke-width="1" fill="none" stroke-linecap="square" stroke-linejoin="bevel" font-weight="400" font-family="Sans Serif" transform="matrix(1,0,0,1,479.257,1050.28)" font-style="normal" font-size="31.75" stroke-opacity="1">
    <text stroke="none" xml:space="preserve" fill="#000000" fill-opacity="1" font-weight="400" x="4" font-family="osifont" font-style="normal" y="70" font-size="50">12.00</text>
   </g>
   <g stroke="#000000" stroke-width="3.5" fill="none" stroke-linecap="round" stroke-linejoin="bevel" font-weight="400" font-family="Sans Serif" transform="matrix(1,0,0,1,585.04,737.37)" font-style="normal" font-size="31.75" stroke-opacity="1">
    <path d="M-210,398.156 L110,398.156 M10,435 L10,370.156 M-110,435 L-110,370.156" vector-effect="none" fill-rule="evenodd"/>
   </g>
   <g stroke="#000000" stroke-width="3.5" fill="#000000" stroke-linecap="round" stroke-linejoin="bevel" fill-opacity="1" font-weight="400" font-family="Sans Serif" transform="matrix(1,0,0,1,595.04,1135.53)" font-style="normal" font-size="31.75" stroke-opacity="1">
    <path d="M0,0 L50,8.33333 L50,-8.33333 L0,0" vector-effect="none" fill-rule="evenodd"/>
   </g>
   <g stroke="#000000" stroke-width="3.5" fill="#000000" stroke-linecap="round" stroke-linejoin="bevel" fill-opacity="1" font-weight="400" font-family="Sans Serif" transform="matrix(1,0,0,1,475.04,1135.53)" font-style="normal" font-size="31.75" stroke-opacity="1">
    <path d="M0,0 L-50,-8.33333 L-50,8.33333 L0,0" vector-effect="none" fill-rule="evenodd"/>
   </g>
   <g stroke="#000000" stroke-width="1" fill="none" stroke-linecap="square" stroke-linejoin="bevel" font-weight="400" font-family="Sans Serif" transform="matrix(1,0,0,1,585.04,737.37)" font-style="normal" font-size="31.75" stroke-opacity="1">
    <rect width="0" height="0" x="0" y="0"/>
   </g>
   <g stroke="#000000" stroke-width="1" fill="none" stroke-linecap="square" stroke-linejoin="bevel" font-weight="400" font-family="Sans Serif" transform="matrix(0,-1,1,0,840.207,1368.84)" font-style="normal" font-size="31.75" stroke-opacity="1">
    <text stroke="none" xml:space="preserve" fill="#000000" fill-opacity="1" font-weight="400" x="4" font-family="osifont" font-style="normal" y="70" font-size="50">3.00</text>
   </g>
   <g stroke="#000000" stroke-width="3.5" fill="none" stroke-linecap="round" stroke-linejoin="bevel" font-weight="400" font-family="Sans Serif" transform="matrix(1,0,0,1,585.04,737.37)" font-style="normal" font-size="31.75" stroke-opacity="1">
    <path d="M340.417,645.766 L340.417,355 M140,455 L368.417,455 M140,485 L368.417,485" vector-effect="none" fill-rule="evenodd"/>
   </g>
   <g stroke="#000000" stroke-width="3.5" fill="#000000" stroke-linecap="round" stroke-linejoin="bevel" fill-opacity="1" font-weight="400" font-family="Sans Serif" transform="matrix(1,0,0,1,925.457,1192.37)" font-style="normal" font-size="31.75" stroke-opacity="1">
    <path d="M0,0 L8.33333,-50 L-8.33333,-50 L0,0" vector-effect="none" fill-rule="evenodd"/>
   </g>
   <g stroke="#000000" stroke-width="3.5" fill="#000000" stroke-linecap="round" stroke-linejoin="bevel" fill-opacity="1" font-weight="400" font-family="Sans Serif" transform="matrix(1,0,0,1,925.457,1222.37)" font-style="normal" font-size="31.75" stroke-opacity="1">
    <path d="M0,0 L-8.33333,50 L8.33333,50 L0,0" vector-effect="none" fill-rule="evenodd"/>
   </g>
   <g stroke="#000000" stroke-width="1" fill="none" stroke-linecap="square" stroke-linejoin="bevel" font-weight="400" font-family="Sans Serif" transform="matrix(1,0,0,1,585.04,737.37)" font-style="normal" font-size="31.75" stroke-opacity="1">
    <rect width="0" height="0" x="0" y="0"/>
   </g>
   <g stroke="#000000" stroke-width="1" fill="none" stroke-linecap="square" stroke-linejoin="bevel" font-weight="400" font-family="Sans Serif" transform="matrix(0,-1,1,0,862.118,1060.78)" font-style="normal" font-size="31.75" stroke-opacity="1">
    <text stroke="none" xml:space="preserve" fill="#000000" fill-opacity="1" font-weight="400" x="4" font-family="osifont" font-style="normal" y="70" font-size="50">37.00</text>
   </g>
   <g stroke="#000000" stroke-width="3.5" fill="none" stroke-linecap="round" stroke-linejoin="bevel" font-weight="400" font-family="Sans Serif" transform="matrix(1,0,0,1,585.04,737.37)" font-style="normal" font-size="31.75" stroke-opacity="1">
    <path d="M362.329,435 L362.329,65 M270,65 L390.329,65 M270,435 L390.329,435" vector-effect="none" fill-rule="evenodd"/>
   </g>
   <g stroke="#000000" stroke-width="3.5" fill="#000000" stroke-linecap="round" stroke-linejoin="bevel" fill-opacity="1" font-weight="400" font-family="Sans Serif" transform="matrix(1,0,0,1,947.368,802.37)" font-style="normal" font-size="31.75" stroke-opacity="1">
    <path d="M0,0 L-8.33333,50 L8.33333,50 L0,0" vector-effect="none" fill-rule="evenodd"/>
   </g>
   <g stroke="#000000" stroke-width="3.5" fill="#000000" stroke-linecap="round" stroke-linejoin="bevel" fill-opacity="1" font-weight="400" font-family="Sans Serif" transform="matrix(1,0,0,1,947.368,1172.37)" font-style="normal" font-size="31.75" stroke-opacity="1">
    <path d="M0,0 L8.33333,-50 L-8.33333,-50 L0,0" vector-effect="none" fill-rule="evenodd"/>
   </g>
   <g stroke="#000000" stroke-width="1" fill="none" stroke-linecap="square" stroke-linejoin="bevel" font-weight="400" font-family="Sans Serif" transform="matrix(1,0,0,1,585.04,737.37)" font-style="normal" font-size="31.75" stroke-opacity="1">
    <rect width="0" height="0" x="0" y="0"/>
   </g>
   <g stroke="#000000" stroke-width="1" fill="none" stroke-linecap="square" stroke-linejoin="bevel" font-weight="400" font-family="Sans Serif" transform="matrix(0,-1,1,0,350.055,1256.36)" font-style="normal" font-size="31.75" stroke-opacity="1">
    <text stroke="none" xml:space="preserve" fill="#000000" fill-opacity="1" font-weight="400" x="4" font-family="osifont" font-style="normal" y="70" font-size="50">7.00</text>
   </g>
   <g stroke="#000000" stroke-width="3.5" fill="none" stroke-linecap="round" stroke-linejoin="bevel" font-weight="400" font-family="Sans Serif" transform="matrix(1,0,0,1,585.04,737.37)" font-style="normal" font-size="31.75" stroke-opacity="1">
    <path d="M-149.734,335 L-149.734,605 M10,505 L-177.734,505 M10,435 L-177.734,435" vector-effect="none" fill-rule="evenodd"/>
   </g>
   <g stroke="#000000" stroke-width="3.5" fill="#000000" stroke-linecap="round" stroke-linejoin="bevel" fill-opacity="1" font-weight="400" font-family="Sans Serif" transform="matrix(1,0,0,1,435.305,1242.37)" font-style="normal" font-size="31.75" stroke-opacity="1">
    <path d="M0,0 L-8.33333,50 L8.33333,50 L0,0" vector-effect="none" fill-rule="evenodd"/>
   </g>
   <g stroke="#000000" stroke-width="3.5" fill="#000000" stroke-linecap="round" stroke-linejoin="bevel" fill-opacity="1" font-weight="400" font-family="Sans Serif" transform="matrix(1,0,0,1,435.305,1172.37)" font-style="normal" font-size="31.75" stroke-opacity="1">
    <path d="M0,0 L8.33333,-50 L-8.33333,-50 L0,0" vector-effect="none" fill-rule="evenodd"/>
   </g>
   <g stroke="#000000" stroke-width="1" fill="none" stroke-linecap="square" stroke-linejoin="bevel" font-weight="400" font-family="Sans Serif" transform="matrix(1,0,0,1,585.04,737.37)" font-style="normal" font-size="31.75" stroke-opacity="1">
    <rect width="0" height="0" x="0" y="0"/>
   </g>
   <g stroke="#000000" stroke-width="1" fill="none" stroke-linecap="square" stroke-linejoin="bevel" font-weight="400" font-family="Sans Serif" transform="matrix(1,0,0,1,706.619,762.752)" font-style="normal" font-size="31.75" stroke-opacity="1">
    <text stroke="none" xml:space="preserve" fill="#000000" fill-opacity="1" font-weight="400" x="4" font-family="osifont" font-style="normal" y="70" font-size="50">11.00</text>
   </g>
   <g stroke="#000000" stroke-width="3.5" fill="none" stroke-linecap="round" stroke-linejoin="bevel" font-weight="400" font-family="Sans Serif" transform="matrix(1,0,0,1,585.04,737.37)" font-style="normal" font-size="31.75" stroke-opacity="1">
    <path d="M320,110.632 L10,110.632 M110,-15 L110,138.632 M220,-15 L220,138.632" vector-effect="none" fill-rule="evenodd"/>
   </g>
   <g stroke="#000000" stroke-width="3.5" fill="#000000" stroke-linecap="round" stroke-linejoin="bevel" fill-opacity="1" font-weight="400" font-family="Sans Serif" transform="matrix(1,0,0,1,695.04,848.002)" font-style="normal" font-size="31.75" stroke-opacity="1">
    <path d="M0,0 L-50,-8.33333 L-50,8.33333 L0,0" vector-effect="none" fill-rule="evenodd"/>
   </g>
   <g stroke="#000000" stroke-width="3.5" fill="#000000" stroke-linecap="round" stroke-linejoin="bevel" fill-opacity="1" font-weight="400" font-family="Sans Serif" transform="matrix(1,0,0,1,805.04,848.002)" font-style="normal" font-size="31.75" stroke-opacity="1">
    <path d="M0,0 L50,8.33333 L50,-8.33333 L0,0" vector-effect="none" fill-rule="evenodd"/>
   </g>
   <g stroke="#000000" stroke-width="1" fill="none" stroke-linecap="square" stroke-linejoin="bevel" font-weight="400" font-family="Sans Serif" transform="matrix(1,0,0,1,585.04,737.37)" font-style="normal" font-size="31.75" stroke-opacity="1">
    <rect width="0" height="0" x="0" y="0"/>
   </g>
   <g stroke="#000000" stroke-width="1" fill="none" stroke-linecap="square" stroke-linejoin="bevel" font-weight="400" font-family="Sans Serif" transform="matrix(1,0,0,1,612.045,1050.28)" font-style="normal" font-size="31.75" stroke-opacity="1">
    <text stroke="none" xml:space="preserve" fill="#000000" fill-opacity="1" font-weight="400" x="4" font-family="osifont" font-style="normal" y="70" font-size="50">13.00</text>
   </g>
   <g stroke="#000000" stroke-width="3.5" fill="none" stroke-linecap="round" stroke-linejoin="bevel" font-weight="400" font-family="Sans Serif" transform="matrix(1,0,0,1,585.04,737.37)" font-style="normal" font-size="31.75" stroke-opacity="1">
    <path d="M10,398.156 L140,398.156 M140,485 L140,370.156 M10,505 L10,370.156" vector-effect="none" fill-rule="evenodd"/>
   </g>
   <g stroke="#000000" stroke-width="3.5" fill="#000000" stroke-linecap="round" stroke-linejoin="bevel" fill-opacity="1" font-weight="400" font-family="Sans Serif" transform="matrix(1,0,0,1,725.04,1135.53)" font-style="normal" font-size="31.75" stroke-opacity="1">
    <path d="M0,0 L-50,-8.33333 L-50,8.33333 L0,0" vector-effect="none" fill-rule="evenodd"/>
   </g>
   <g stroke="#000000" stroke-width="3.5" fill="#000000" stroke-linecap="round" stroke-linejoin="bevel" fill-opacity="1" font-weight="400" font-family="Sans Serif" transform="matrix(1,0,0,1,595.04,1135.53)" font-style="normal" font-size="31.75" stroke-opacity="1">
    <path d="M0,0 L50,8.33333 L50,-8.33333 L0,0" vector-effect="none" fill-rule="evenodd"/>
   </g>
   <g stroke="#000000" stroke-width="1" fill="none" stroke-linecap="square" stroke-linejoin="bevel" font-weight="400" font-family="Sans Serif" transform="matrix(1,0,0,1,585.04,737.37)" font-style="normal" font-size="31.75" stroke-opacity="1">
    <rect width="0" height="0" x="0" y="0"/>
   </g>
   <g stroke="#000000" stroke-width="1" fill="none" stroke-linecap="square" stroke-linejoin="bevel" font-weight="400" font-family="Sans Serif" transform="matrix(1,0,0,1,741.386,1050.28)" font-style="normal" font-size="31.75" stroke-opacity="1">
    <text stroke="none" xml:space="preserve" fill="#000000" fill-opacity="1" font-weight="400" x="4" font-family="osifont" font-style="normal" y="70" font-size="50">13.00</text>
   </g>
   <g stroke="#000000" stroke-width="3.5" fill="none" stroke-linecap="round" stroke-linejoin="bevel" font-weight="400" font-family="Sans Serif" transform="matrix(1,0,0,1,585.04,737.37)" font-style="normal" font-size="31.75" stroke-opacity="1">
    <path d="M140,398.156 L270,398.156 M270,435 L270,370.156 M140,455 L140,370.156" vector-effect="none" fill-rule="evenodd"/>
   </g>
   <g stroke="#000000" stroke-width="3.5" fill="#000000" stroke-linecap="round" stroke-linejoin="bevel" fill-opacity="1" font-weight="400" font-family="Sans Serif" transform="matrix(1,0,0,1,855.04,1135.53)" font-style="normal" font-size="31.75" stroke-opacity="1">
    <path d="M0,0 L-50,-8.33333 L-50,8.33333 L0,0" vector-effect="none" fill-rule="evenodd"/>
   </g>
   <g stroke="#000000" stroke-width="3.5" fill="#000000" stroke-linecap="round" stroke-linejoin="bevel" fill-opacity="1" font-weight="400" font-family="Sans Serif" transform="matrix(1,0,0,1,725.04,1135.53)" font-style="normal" font-size="31.75" stroke-opacity="1">
    <path d="M0,0 L50,8.33333 L50,-8.33333 L0,0" vector-effect="none" fill-rule="evenodd"/>
   </g>
   <g stroke="#000000" stroke-width="1" fill="none" stroke-linecap="square" stroke-linejoin="bevel" font-weight="400" font-family="Sans Serif" transform="matrix(1,0,0,1,585.04,737.37)" font-style="normal" font-size="31.75" stroke-opacity="1">
    <rect width="0" height="0" x="0" y="0"/>
   </g>
   <g stroke="#000000" stroke-width="1" fill="none" stroke-linecap="square" stroke-linejoin="bevel" font-weight="400" font-family="Sans Serif" transform="matrix(1,0,0,1,344.641,604.882)" font-style="normal" font-size="31.75" stroke-opacity="1">
    <text stroke="none" xml:space="preserve" fill="#000000" fill-opacity="1" font-weight="400" x="4" font-family="osifont" font-style="normal" y="70" font-size="50">16.00</text>
   </g>
   <g stroke="#000000" stroke-width="3.5" fill="none" stroke-linecap="round" stroke-linejoin="bevel" font-weight="400" font-family="Sans Serif" transform="matrix(1,0,0,1,585.04,737.37)" font-style="normal" font-size="31.75" stroke-opacity="1">
    <path d="M-270,-47.2383 L-110,-47.2383 M-110,65 L-110,-75.2383 M-270,65 L-270,-75.2383" vector-effect="none" fill-rule="evenodd"/>
   </g>
   <g stroke="#000000" stroke-width="3.5" fill="#000000" stroke-linecap="round" stroke-linejoin="bevel" fill-opacity="1" font-weight="400" font-family="Sans Serif" transform="matrix(1,0,0,1,475.04,690.132)" font-style="normal" font-size="31.75" stroke-opacity="1">
    <path d="M0,0 L-50,-8.33333 L-50,8.33333 L0,0" vector-effect="none" fill-rule="evenodd"/>
   </g>
   <g stroke="#000000" stroke-width="3.5" fill="#000000" stroke-linecap="round" stroke-linejoin="bevel" fill-opacity="1" font-weight="400" font-family="Sans Serif" transform="matrix(1,0,0,1,315.04,690.132)" font-style="normal" font-size="31.75" stroke-opacity="1">
    <path d="M0,0 L50,8.33333 L50,-8.33333 L0,0" vector-effect="none" fill-rule="evenodd"/>
   </g>
   <g stroke="#000000" stroke-width="1" fill="none" stroke-linecap="square" stroke-linejoin="bevel" font-weight="400" font-family="Sans Serif" transform="matrix(1,0,0,1,585.04,737.37)" font-style="normal" font-size="31.75" stroke-opacity="1">
    <rect width="0" height="0" x="0" y="0"/>
   </g>
   <g stroke="#000000" stroke-width="1" fill="none" stroke-linecap="square" stroke-linejoin="bevel" font-weight="400" font-family="Sans Serif" transform="matrix(0.836625,-0.547775,0.547775,0.836625,828.389,661.309)" font-style="normal" font-size="31.75" stroke-opacity="1">
    <text stroke="none" xml:space="preserve" fill="#000000" fill-opacity="1" font-weight="400" x="4" font-family="osifont" font-style="normal" y="70" font-size="50">R12.00</text>
   </g>
   <g stroke="#000000" stroke-width="3.5" fill="none" stroke-linecap="round" stroke-linejoin="bevel" font-weight="400" font-family="Sans Serif" transform="matrix(1,0,0,1,585.04,737.37)" font-style="normal" font-size="31.75" stroke-opacity="1">
    <path d="M401.554,-77.7464 L236.809,30.1196" vector-effect="none" fill-rule="evenodd"/>
   </g>
   <g stroke="#000000" stroke-width="3.5" fill="#000000" stroke-linecap="round" stroke-linejoin="bevel" fill-opacity="1" font-weight="400" font-family="Sans Serif" transform="matrix(1,0,0,1,821.848,767.489)" font-style="normal" font-size="31.75" stroke-opacity="1">
    <path d="M0,0 L46.3961,-20.4169 L37.2665,-34.3606 L0,0" vector-effect="none" fill-rule="evenodd"/>
   </g>
   <g stroke="#000000" stroke-width="1" fill="none" stroke-linecap="square" stroke-linejoin="bevel" font-weight="400" font-family="Sans Serif" transform="matrix(1,0,0,1,585.04,737.37)" font-style="normal" font-size="31.75" stroke-opacity="1">
    <rect width="0" height="0" x="0" y="0"/>
   </g>
   <g stroke="#000000" stroke-width="1" fill="none" stroke-linecap="square" stroke-linejoin="bevel" font-weight="400" font-family="Sans Serif" transform="matrix(0,-1,1,0,916.677,1368.49)" font-style="normal" font-size="31.75" stroke-opacity="1">
    <text stroke="none" xml:space="preserve" fill="#000000" fill-opacity="1" font-weight="400" x="4" font-family="osifont" font-style="normal" y="70" font-size="50">2.00</text>
   </g>
   <g stroke="#000000" stroke-width="3.5" fill="none" stroke-linecap="round" stroke-linejoin="bevel" font-weight="400" font-family="Sans Serif" transform="matrix(1,0,0,1,585.04,737.37)" font-style="normal" font-size="31.75" stroke-opacity="1">
    <path d="M416.887,645.34 L416.887,385 M140,485 L444.887,485 M10,505 L444.887,505" vector-effect="none" fill-rule="evenodd"/>
   </g>
   <g stroke="#000000" stroke-width="3.5" fill="#000000" stroke-linecap="round" stroke-linejoin="bevel" fill-opacity="1" font-weight="400" font-family="Sans Serif" transform="matrix(1,0,0,1,1001.93,1222.37)" font-style="normal" font-size="31.75" stroke-opacity="1">
    <path d="M0,0 L8.33333,-50 L-8.33333,-50 L0,0" vector-effect="none" fill-rule="evenodd"/>
   </g>
   <g stroke="#000000" stroke-width="3.5" fill="#000000" stroke-linecap="round" stroke-linejoin="bevel" fill-opacity="1" font-weight="400" font-family="Sans Serif" transform="matrix(1,0,0,1,1001.93,1242.37)" font-style="normal" font-size="31.75" stroke-opacity="1">
    <path d="M0,0 L-8.33333,50 L8.33333,50 L0,0" vector-effect="none" fill-rule="evenodd"/>
   </g>
   <g stroke="#000000" stroke-width="1" fill="none" stroke-linecap="square" stroke-linejoin="bevel" font-weight="400" font-family="Sans Serif" transform="matrix(1,0,0,1,585.04,737.37)" font-style="normal" font-size="31.75" stroke-opacity="1">
    <rect width="0" height="0" x="0" y="0"/>
   </g>
   <g stroke="#000000" stroke-width="1" fill="none" stroke-linecap="square" stroke-linejoin="bevel" font-weight="400" font-family="Sans Serif" transform="matrix(0,-1,1,0,769.225,1368.49)" font-style="normal" font-size="31.75" stroke-opacity="1">
    <text stroke="none" xml:space="preserve" fill="#000000" fill-opacity="1" font-weight="400" x="4" font-family="osifont" font-style="normal" y="70" font-size="50">2.00</text>
   </g>
   <g stroke="#000000" stroke-width="3.5" fill="none" stroke-linecap="round" stroke-linejoin="bevel" font-weight="400" font-family="Sans Serif" transform="matrix(1,0,0,1,585.04,737.37)" font-style="normal" font-size="31.75" stroke-opacity="1">
    <path d="M269.435,645.34 L269.435,335 M297.435,435 L241.435,435 M140,455 L297.435,455" vector-effect="none" fill-rule="evenodd"/>
   </g>
   <g stroke="#000000" stroke-width="3.5" fill="#000000" stroke-linecap="round" stroke-linejoin="bevel" fill-opacity="1" font-weight="400" font-family="Sans Serif" transform="matrix(1,0,0,1,854.475,1172.37)" font-style="normal" font-size="31.75" stroke-opacity="1">
    <path d="M0,0 L8.33333,-50 L-8.33333,-50 L0,0" vector-effect="none" fill-rule="evenodd"/>
   </g>
   <g stroke="#000000" stroke-width="3.5" fill="#000000" stroke-linecap="round" stroke-linejoin="bevel" fill-opacity="1" font-weight="400" font-family="Sans Serif" transform="matrix(1,0,0,1,854.475,1192.37)" font-style="normal" font-size="31.75" stroke-opacity="1">
    <path d="M0,0 L-8.33333,50 L8.33333,50 L0,0" vector-effect="none" fill-rule="evenodd"/>
   </g>
  </g>
 </g>
</svg>
